PathFileType	4	(X/Y/Z)	RBDS001\RBDS001runT35.trc
DataRate	CameraRate	NumFrames	NumMarkers	Units	OrigDataRate	OrigDataStartFrame	OrigNumFrames
150.000000	150.000000	4	32	mm	150.000000	3937	4500
Frame#	Time	L.ASIS			L.Heel.Bottom			L.Heel.Lateral			L.Heel.Top			L.Iliac.Crest			L.MT1			L.MT5			L.PSIS			L.Shank.Bottom.Lateral			L.Shank.Bottom.Medial			L.Shank.Top.Lateral			L.Shank.Top.Medial			L.Thigh.Bottom.Lateral			L.Thigh.Bottom.Medial			L.Thigh.Top.Lateral			L.Thigh.Top.Medial			R.ASIS			R.Heel.Bottom			R.Heel.Lateral			R.Heel.Top			R.Iliac.Crest			R.MT1			R.MT5			R.PSIS			R.Shank.Bottom.Lateral			R.Shank.Bottom.Medial			R.Shank.Top.Lateral			R.Shank.Top.Medial			R.Thigh.Bottom.Lateral			R.Thigh.Bottom.Medial			R.Thigh.Top.Lateral			R.Thigh.Top.Medial			
		X1	Y1	Z1	X2	Y2	Z2	X3	Y3	Z3	X4	Y4	Z4	X5	Y5	Z5	X6	Y6	Z6	X7	Y7	Z7	X8	Y8	Z8	X9	Y9	Z9	X10	Y10	Z10	X11	Y11	Z11	X12	Y12	Z12	X13	Y13	Z13	X14	Y14	Z14	X15	Y15	Z15	X16	Y16	Z16	X17	Y17	Z17	X18	Y18	Z18	X19	Y19	Z19	X20	Y20	Z20	X21	Y21	Z21	X22	Y22	Z22	X23	Y23	Z23	X24	Y24	Z24	X25	Y25	Z25	X26	Y26	Z26	X27	Y27	Z27	X28	Y28	Z28	X29	Y29	Z29	X30	Y30	Z30	X31	Y31	Z31	X32	Y32	Z32	

3938	26.24666666666667	2414.508085310521	1015.897035129516	941.733405778209	1790.628082473658	544.0028223101816	992.3834883101615	1793.130726429936	512.3158289495829	950.6135090460458	1833.680642462952	524.6023822568829	988.8528754430486	2363.973631874341	1089.856664637687	912.183762082386	1760.715736246672	324.5828665600633	1034.709913611175	1746.031796404237	357.2941193238095	931.6024001386639	2244.918224655727	1062.346808536752	1009.177765793088	1917.587346658426	463.8432145159718	933.1182044862123	1910.319649947755	505.1962173523114	963.7412131246525	1995.241143194198	482.8175355419765	921.19992362108	1992.009782082896	525.277535119679	953.8422936102356	2261.006529231036	612.0919671877112	911.7063465019025	2223.245062081325	620.7480945038311	974.1275926646479	2255.850363419939	721.7546233228154	897.7272196904256	2223.398578768208	730.3697460939225	957.8034387757737	2406.851057489869	1022.993839508303	1150.861270428456	2386.657166525079	39.55503544698731	1066.659777497951	2420.969125240068	49.32198880640859	1108.573047962388	2400.324795830877	86.63009713502822	1070.659553981725	2346.166418318841	1091.534228321606	1182.08268958861	2592.31680636487	43.15305623535534	1116.434313452336	2606.18352678576	57.03010144173974	1007.394607196498	2244.58161733683	1061.547391639961	1085.264571669316	2479.547756329559	176.4910437875605	1125.934640634933	2433.248412577196	185.0844816701607	1097.90300392031	2478.817903516169	254.7024617874044	1147.740405364913	2434.299217672318	263.0527065867827	1117.565734159301	2465.294725965996	615.9968209691767	1177.954256840075	2411.696952048114	592.142926257879	1133.438904365103	2407.104645046973	708.6885690146364	1195.270869231291	2355.005543642586	684.6269972627449	1155.182096392749	
3939	26.25333333333333	2412.735058779398	1010.394952457028	941.7300975164037	1807.502896496645	552.032176445601	990.9254816942114	1808.941950981628	520.516273588156	948.7617223001029	1849.889621106669	530.9419931023684	987.3588567772433	2361.98264589907	1083.584988537138	911.4537410664142	1769.055039772759	332.6840277102371	1030.568685965686	1756.021283487505	367.1466049632864	927.860737413338	2242.702045134196	1055.74720518553	1008.724182629806	1930.862638632196	467.6374564367311	931.0214727013332	1924.985410715952	509.1176892680446	961.7231911852497	2009.104805259918	483.9960620836094	919.0865009295979	2007.317244646387	526.4589923804424	951.971046614998	2269.31659066855	604.193317305279	910.7986986085931	2231.506914506577	611.4557006549398	973.3392143268495	2260.926180680444	713.7607834744827	897.3226650177448	2228.524045478556	721.1930419888195	957.6518369524455	2404.759143502449	1017.870276470519	1151.40943931932	2363.561998858168	38.07623648065334	1065.30115670688	2397.86121492249	48.74385057588731	1107.012599738017	2377.360913573212	85.26041979678031	1068.236646069238	2344.171700186863	1085.611927290394	1182.064607171099	2569.333841377159	42.87110193294993	1115.374882394873	2583.699880163841	54.54690453177048	1005.89199664628	2242.185295181495	1055.617783961086	1084.76289675109	2462.179869233649	173.5697179078798	1123.292496374539	2415.841968944756	184.4136487182943	1095.982809433241	2465.36447960601	251.626224701174	1145.454481429218	2420.779400340795	262.1794247506921	1115.993673250587	2463.254353896369	611.4357083492981	1176.372253943987	2409.753304387634	587.8892191346439	1131.559250095473	2405.059673194385	704.0109879357829	1194.102822481599	2352.987817039031	680.121479502154	1153.826123130771	
3940	26.26	2410.739165817855	1004.985046150997	941.7203024890149	1824.305485699146	558.4145698941671	989.4642761320491	1825.127696358547	527.1505622625813	946.959618873189	1866.163098458171	536.0535756201166	986.0427081574219	2359.796373280382	1077.447925434044	910.7682608902699	1779.28410052527	339.1680880787189	1026.47958127653	1767.993232921447	375.1850856537067	924.1223728904527	2240.286499988864	1049.39646159777	1008.424162634209	1944.899691072792	470.7243214478637	929.0408560944379	1940.258615582937	512.2510005302861	959.8464174957334	2023.592090627945	484.773508776915	917.056218321246	2023.0833475863	527.1693104434248	950.2131126380067	2278.061746714354	596.8104294335989	909.5870875094198	2240.002018080243	602.6388253567158	972.095605801375	2266.373479205588	706.1517351759184	896.5961184589557	2233.834250003132	712.37952784142	957.0462900335933	2402.564348641017	1012.797110312567	1151.85216521736	2339.72653979648	36.85663315169619	1064.400520568568	2374.07030806706	48.45093754147595	1105.875230882126	2353.553738053717	84.16172471185827	1066.316225303489	2342.199382204355	1079.807639957522	1182.098746818867	2545.643327543895	43.02586766535498	1114.49254045209	2560.301417031864	52.83057145863442	1004.659157738219	2239.671082870727	1049.991387628326	1084.393010853503	2443.898628006506	171.1346408721417	1120.888064320614	2397.554613971943	184.2114788486741	1094.374908354336	2450.997571187423	248.8972653591305	1143.352091952617	2406.40856364256	261.6259521283706	1114.652198256219	2460.477885356548	606.8377357245963	1174.902088786884	2407.057009424058	583.7233912589655	1129.736021958578	2402.444962390515	699.3859342580636	1193.093616929213	2350.405896722785	675.8101163085674	1152.550731282701	
3941	26.26666666666667	2408.520874111382	999.7881387952491	941.686464228909	1840.755052817283	563.1670480240912	987.951828975482	1841.418933260109	532.1956795870733	945.1806551092621	1882.253498146123	539.989045323937	984.8505124870219	2357.396956726199	1071.59166226261	910.1283736323086	1791.339423704543	343.9573745569035	1022.543203283633	1781.794290573431	381.2583966859627	920.4713511499642	2237.69514877669	1043.452696562882	1008.232727154918	1959.57647106665	473.1260311313881	927.1700995545202	1955.991706937586	514.6367359002855	958.1036626931967	2038.604918608004	485.2164190525792	915.12426249501	2039.185101560478	527.4942668232211	948.5683581735269	2287.312691816687	590.1186834668202	908.046889987545	2248.803972075567	594.4301694166151	970.3641878740717	2272.243567572333	699.0866148239425	895.5295917230668	2239.359323152412	704.0465422216976	955.9454029010449	2400.273120420329	1007.915017756289	1152.158408893032	2315.5171572226	35.95042760182359	1063.863809557217	2349.946406060815	48.4071735865942	1105.097182113744	2329.311642281113	83.36836217711745	1064.869895708504	2340.209617350196	1074.285618288489	1182.163706024488	2521.579832809142	43.45770882026859	1113.781550077368	2536.367383846954	51.77541305089781	1003.697991907007	2237.062668809842	1044.811365438835	1084.113718578287	2424.976003367793	169.1701705907147	1118.769196371371	2378.672982097602	184.4112718263657	1093.099652704501	2435.881806899074	246.4964999801267	1141.479718793511	2391.3694112263	261.3256336198573	1113.554323352365	2456.886794935672	602.2655010485106	1173.555856913091	2403.499559332263	579.692545225239	1128.030640150047	2399.219361412188	694.9064286705631	1192.218359683058	2347.188206224129	671.7730688563124	1151.379451968545	
